<svg width="76" height="170" viewBox="0 0 76 170" fill="none" xmlns="http://www.w3.org/2000/svg">
<g clip-path="url(#clip0_8_103)">
<path d="M0.64363 169.365C0.64363 157.317 13.5163 157.317 13.5163 145.263C13.5163 133.215 0.643628 133.215 0.643628 121.16C0.643627 109.106 13.5163 109.106 13.5163 97.0576C13.5163 85.0032 0.643626 85.0032 0.643626 72.9551C0.643625 60.9006 13.5163 60.9006 13.5163 48.8526C13.5163 36.7981 0.643624 36.7981 0.643624 24.7437C0.643623 12.6892 13.5163 12.6892 13.5163 0.634794" stroke="#262C38" stroke-width="2" stroke-miterlimit="10" stroke-linecap="round"/>
<path d="M62.4837 169.365C62.4837 157.317 75.3564 157.317 75.3564 145.263C75.3564 133.208 62.4837 133.208 62.4837 121.16C62.4837 109.106 75.3564 109.106 75.3564 97.0576C75.3564 85.0032 62.4837 85.0032 62.4837 72.9551C62.4837 60.9006 75.3564 60.9006 75.3564 48.8526C75.3564 36.7981 62.4837 36.7981 62.4837 24.7437C62.4837 12.6892 75.3564 12.6892 75.3564 0.634794" stroke="#262C38" stroke-width="2" stroke-miterlimit="10" stroke-linecap="round"/>
<path d="M31.5637 169.365C31.5637 157.317 44.4363 157.317 44.4363 145.263C44.4363 133.208 31.5637 133.208 31.5637 121.16C31.5637 109.106 44.4363 109.106 44.4363 97.0576C44.4363 85.0032 31.5637 85.0032 31.5637 72.9551C31.5637 60.9006 44.4363 60.9006 44.4363 48.8526C44.4363 36.7981 31.5637 36.7981 31.5637 24.7437C31.5637 12.6892 44.4363 12.6892 44.4363 0.634794" stroke="#262C38" stroke-width="2" stroke-miterlimit="10" stroke-linecap="round"/>
</g>
<defs>
<clipPath id="clip0_8_103">
<rect width="170" height="76" fill="white" transform="translate(0 170) rotate(-90)"/>
</clipPath>
</defs>
</svg>
