<svg width="162" height="142" viewBox="0 0 162 142" fill="none" xmlns="http://www.w3.org/2000/svg">
<path fill-rule="evenodd" clip-rule="evenodd" d="M67.0361 6.45265C68.1231 4.82371 69.0303 3.1865 70.404 1.58744C73.5297 1.07971 71.9323 5.68389 72.2259 7.26775C73.0112 6.22635 73.4669 5.62083 74.5226 4.24104C75.2203 3.3209 76.2771 1.41492 77.4761 2.23855C79.0476 3.33826 77.1009 6.38942 77.8103 7.60818C79.5611 6.53601 81.8525 1.58788 83.7257 3.27782C85.1266 4.53674 83.1769 6.96965 83.7095 8.46427C85.348 7.47047 87.2798 3.34944 89.0773 4.43449C90.1424 5.06819 89.2059 6.74582 89.3465 7.82147C90.9769 6.64351 92.654 3.57996 94.2935 4.92503C95.7348 6.10228 94.1246 8.2501 94.1239 9.77866C95.2238 8.91878 96.6524 6.79603 98.2081 6.50842C100.41 7.445 98.8487 9.5199 99.1256 10.9109C100.411 9.94261 102.527 6.94096 103.902 7.99825C105.217 9.01098 103.641 10.5255 103.974 11.7103C105.712 10.3619 107.003 8.97617 108.759 8.47226C110.905 9.28096 109.606 11.1508 109.532 12.3752C111.229 11.3006 112.661 8.95245 114.017 9.86685C115.234 10.6913 114.188 11.8878 114.559 13.0242C116.193 12.1304 117.95 9.76376 119.309 10.6115C120.643 11.4497 119.577 12.6786 119.578 13.8398C121.041 13.0885 122.727 10.5432 124.045 11.6647C125.261 12.6812 123.624 13.9758 123.766 15.1935C125.589 14.2834 127.904 11.767 129.218 12.9718C130.428 14.0883 128.633 15.8183 128.553 17.1428C129.988 16.2565 131.64 15.8397 132.585 14.8557C136.53 15.6971 141.127 16.9778 145.707 18.5918C150.109 20.1475 155.013 22.1105 157.729 26.2281C161.186 31.4741 159.964 36.8139 157.954 42.0507C159.255 42.311 160.876 43.6719 161.233 45.4091C161.268 45.6028 161.323 46.4322 161.334 46.9005C161.387 49.9434 160.412 53.6908 159.361 57.1841C156.185 67.7131 152.943 76.8023 148.242 87.5452C146.733 91.0091 145.26 94.2992 143.883 97.6355C141.781 102.759 139.594 107.604 137.388 112.815C136.687 114.47 136.03 116.135 135.165 117.816C133.446 121.17 131.458 125.322 129.036 127.833C126.662 130.289 124.527 131.126 122.139 130.649C120.478 133.412 119.628 135.988 117.116 138.161C112.195 142.42 106.415 141.527 101.301 139.981C95.831 138.334 90.6638 135.749 85.8889 134.252C84.6286 132.891 83.3082 132.821 82.0096 132.177C80.542 132.502 79.2285 131.966 77.6736 131.902C77.2783 131.884 76.7669 131.677 76.4426 131.679C76.0822 131.679 75.7248 131.963 75.3645 131.963C74.6088 131.945 73.915 131.78 73.1585 131.778C71.0326 131.781 68.7243 131.825 66.4786 132.214C66.1888 132.076 65.8888 132.296 65.6159 131.841C64.2557 132.346 62.2152 132.436 60.1496 132.658C58.292 132.865 56.1614 133.46 54.7866 133.23C53.2055 132.982 52.7886 131.852 52.7974 130.507C48.774 130.957 41.0343 132.347 40.0604 126.305C31.7815 126.492 21.9894 129.541 13.6262 125.916C11.0029 124.776 7.58608 122.138 6.96489 119.269C6.57239 117.514 6.59842 115.343 6.48619 113.4C5.13025 91.9374 3.16611 70.7308 1.58406 48.9486C1.19039 43.3424 0.895346 37.2395 0.489427 31.357C0.351572 29.3878 0.0447064 27.2102 0.275837 25.5837C0.66369 22.7114 2.60683 19.7269 5.49558 17.5878C9.50983 14.615 14.4205 14.2479 18.9188 13.845C23.5892 13.4251 28.0845 13.5817 32.2613 13.4648C33.2474 8.16428 40.6041 9.38813 44.1969 9.4114C44.4776 8.20478 43.7004 7.07479 44.8177 6.05702C45.9341 5.0559 48.6468 5.1974 50.3783 5.16011C52.488 5.12351 54.4064 5.29529 55.8768 5.25435C56.1667 5.39298 56.461 5.44828 56.7401 5.78689C57.7231 4.75458 59.7053 -0.475076 61.339 1.14538C62.5022 2.30148 61.1829 4.90538 61.6911 6.18171C63.2549 4.90047 64.8431 -0.205314 66.8554 0.906319C68.2224 1.62073 66.6087 5.01299 67.0361 6.45265ZM10.2473 32.3155C8.19665 32.7641 7.35446 29.9856 8.58535 28.6974C16.3236 28.0092 24.0153 27.8535 31.7468 27.1233C32.108 27.1065 33.167 27.3474 33.0132 26.8558C26.9299 27.2525 20.9064 27.7105 14.6582 27.9911C13.5206 28.039 9.4417 28.8537 8.50834 28.2845C7.19211 27.4638 7.10892 25.1462 8.53992 24.3267C9.00434 24.064 10.5422 24.1097 11.482 24.0527C18.5667 23.6269 26.1478 23.1821 32.6848 22.7227C32.8559 20.3667 32.5862 17.9987 32.3525 15.6324C28.6871 15.9566 24.1553 15.6396 19.5406 16.0287C15.2153 16.3977 10.4222 16.5865 6.5795 19.3834C3.95483 21.3008 2.15709 23.9244 2.11322 26.4283C2.0794 28.2394 2.59553 30.2093 2.78908 32.1478C4.91087 53.2698 6.00794 74.5201 7.73578 95.766C8.19369 101.35 8.32788 107.429 8.94218 113.121C9.24844 115.983 8.34455 119.241 11.6662 121.975C15.6184 125.214 21.263 125.44 25.61 125.339C30.7059 125.214 35.3025 124.49 39.8678 124.35C39.8251 122.284 39.5574 120.217 39.5772 118.163C32.8981 118.249 24.9743 118.87 17.8527 119.311C16.8675 119.374 15.2827 119.702 14.7488 119.243C13.8526 118.483 13.9161 115.613 14.5327 115.032C14.9126 114.665 17.0282 114.687 18.0228 114.616C21.9012 114.351 25.8151 114.264 29.0734 113.804C26.2764 113.893 21.4493 114.381 18.1172 114.537C17.061 114.58 15.1046 114.949 14.4826 114.453C13.7743 113.886 13.5502 111.846 14.2139 111.225C14.7636 110.715 15.213 111.07 15.5741 110.719C13.523 111.343 13.1074 108 14.2535 107.117C12.8665 105.767 13.1962 104.487 13.8399 103.23C14.741 102.888 16.0889 103.284 16.6966 102.869C15.6677 102.571 14.3931 103.498 13.5926 102.801C12.9126 102.21 13.054 99.7361 13.4177 99.3352C13.9342 98.7742 15.9807 99.0772 17.3442 99.0146C18.7795 98.9554 20.4197 98.7719 21.2701 98.5353C20.2898 98.674 18.9119 98.6691 17.2677 98.7605C16.1926 98.8196 13.9645 99.3854 13.2648 98.827C12.5138 98.2161 12.4767 95.5414 13.4757 95.0528C11.5634 94.4302 12.3143 90.6641 13.8578 91.2781C11.7288 91.5059 11.6733 88.6717 12.5547 87.5178C13.0282 87.4226 14.371 87.4092 14.2479 87.3534C11.9979 88.1604 10.8472 84.7496 12.2265 83.7188C12.7151 83.3403 13.2149 83.7643 13.5786 83.3633C11.4332 84.0665 10.7455 81.0947 11.8043 79.8236C15.1861 79.2441 18.9941 79.4527 22.0592 78.9004C20.6737 78.8701 18.9724 79.1844 16.8933 79.3226C15.9167 79.3947 12.4795 79.8296 11.7448 79.2529C10.828 78.5424 10.8426 76.9226 11.835 75.8824C10.4005 74.7472 10.5598 72.2737 11.6278 71.5043C10.4975 70.5752 10.2862 68.9701 11.2907 67.8719C9.77308 66.7747 10.1222 64.7944 11.0657 63.8271C9.91145 62.5043 9.8665 60.3138 11.4567 59.8858C9.69326 59.6794 9.43327 56.794 10.4191 56.0458C10.804 55.7544 11.6262 55.8758 12.3863 55.8105C14.3508 55.6253 16.8958 55.3664 18.3742 55.1755C17.38 55.0713 15.9325 55.1885 14.277 55.3212C12.9837 55.4204 10.9703 56.0127 10.1893 55.4589C9.36463 54.878 9.35946 53.2907 9.92059 52.2306C12.6106 51.7864 15.7366 51.9469 18.1314 51.464C17.1359 51.5518 15.7203 51.5786 14.129 51.6892C12.881 51.7821 10.8704 52.3244 10.0413 51.8269C8.9848 51.2019 8.80677 48.8048 10.072 47.8857C8.50859 46.9701 8.69777 44.949 9.64995 44.3246C10.201 43.9574 12.5058 43.9799 13.491 43.9166C17.2503 43.6886 21.909 43.4853 24.8156 43.0343C21.5797 43.4117 17.0651 43.4462 13.3202 43.7417C12.162 43.8388 10.2574 44.4194 9.49698 43.8164C8.44267 42.9827 8.5304 41.1742 9.51964 40.0252C7.94023 39.4096 7.64101 37.2575 8.73822 36.4476C9.15141 36.1325 11.1012 36.0551 11.8689 36.0153C15.095 35.8212 18.3525 35.7121 21.2174 35.5348C25.8267 35.2457 30.0133 34.9455 33.5344 34.4559C25.3113 34.9463 17.065 35.8701 8.86781 35.8772C8.20017 34.7188 7.9818 33.5811 8.95804 32.5067C9.26889 32.4208 10.4621 32.3421 10.2473 32.3155ZM8.99919 25.6759C8.90234 26.1392 8.85941 26.605 9.19387 27.0882C15.5081 26.7522 23.2136 26.1711 29.9604 25.6629C31.7066 25.5177 33.852 25.9923 32.8026 24.0562C24.8783 24.5186 16.9298 25.0969 8.99919 25.6759ZM9.56576 30.0706C9.51377 30.3689 9.35396 30.6622 9.60747 30.9746C17.4163 30.4818 25.2189 30.1057 33.0162 29.8296C33.3929 29.3541 33.0688 28.8464 33.0955 28.3464C25.2477 29.0629 17.4257 29.2962 9.56576 30.0706ZM12.3943 32.0885C11.9145 32.3003 10.9867 31.9652 10.7865 32.3403C11.2626 32.1951 12.1864 32.4381 12.3943 32.0885ZM35.0345 12.139C34.0657 12.9046 34.309 14.4194 34.4732 16.0641C35.298 24.5553 36.0721 33.1527 36.5837 41.2702C38.3218 68.8899 40.3588 96.4816 42.366 123.955C42.4708 125.363 42.493 126.968 43.0531 127.612C45.3292 130.189 49.8355 128.458 52.6905 128.464C49.8599 89.4428 46.7957 50.4104 44.297 11.4124C41.9898 11.774 37.2454 10.378 35.0345 12.139ZM17.7782 34.1571C17.2036 34.2894 16.8489 33.68 16.5059 33.1881C14.2022 33.4831 11.9388 33.3622 9.62887 33.7738C9.74448 34.1383 9.50068 34.4863 9.84138 34.8528C12.4415 34.4044 15.4786 34.5441 17.7782 34.1571ZM30.8179 36.0684C23.7683 36.5125 16.7556 37.2758 9.78592 37.5733C9.69161 37.6525 9.5973 37.7317 9.50299 37.8109C9.63071 38.1175 9.48032 38.4029 9.72441 38.7232C12.2115 38.704 14.7303 38.2602 17.208 38.2489C17.4972 37.8946 17.7537 37.9816 18.0385 37.7107C21.8962 37.4956 26.4103 37.3023 30.3201 37.123C31.4217 37.0734 33.7328 37.3134 33.7507 36.1365C32.8211 35.8348 31.7672 36.0035 30.8179 36.0684ZM46.7549 15.4764C50.1882 54.0079 52.2771 92.9202 55.398 131.061C58.1478 130.678 60.8676 130.687 63.6182 130.287C60.6925 89.3397 57.3628 48.3656 55.0026 7.45273C52.1191 7.13631 49.2329 6.86989 46.3049 7.38673C46.1513 9.58484 46.5039 12.7585 46.7549 15.4764ZM13.9398 39.7357C12.6231 39.9341 10.8673 39.7531 9.8342 40.2067C11.1329 40.0075 12.9111 40.106 13.9398 39.7357ZM30.2388 40.3268C26.1268 40.5803 21.6358 41.184 18.2048 41.1682C17.906 41.1962 17.6251 40.8909 17.3326 40.8023C14.9167 41.1756 12.5221 41.149 10.1052 41.539C10.2208 41.9035 9.97703 42.2514 10.3177 42.6179C17.189 42.3075 24.4017 41.6788 31.1611 41.2714C32.1189 41.2152 33.1635 41.3885 34.0272 40.902C34.5501 39.7149 31.0794 40.2736 30.2388 40.3268ZM15.8042 39.5709C15.3298 39.6827 14.3827 39.5389 14.1964 39.8227C14.6837 39.6363 15.6107 39.988 15.8042 39.5709ZM10.2364 45.8217C10.2663 46.2741 10.2559 46.2987 10.5427 46.6628C12.9066 46.2536 15.2494 46.069 17.5998 45.9099C17.7435 45.5824 18.0574 45.271 18.183 44.9427C15.5308 45.3553 12.9038 45.1258 10.2364 45.8217ZM57.0706 8.53351C60.527 48.6531 62.8273 89.1706 66.0747 128.988C64.1338 89.3309 61.3936 49.6285 60.0013 9.9881C59.1589 8.89688 59.4896 7.93479 59.544 6.91823C59.5693 6.27621 59.7212 5.2892 59.3662 5.18934C58.793 6.30733 57.8415 7.42462 57.0706 8.53351ZM10.6848 49.0582C10.6589 49.5415 10.3884 50.3894 10.862 50.6284C18.7616 50.1231 26.663 49.5845 34.5715 48.9125C34.4419 48.3051 34.6716 47.7143 34.3178 47.0882C26.4524 47.6285 18.5713 48.2934 10.6848 49.0582ZM61.9184 9.17417C64.6556 49.4361 66.1632 89.6164 68.7841 129.865C69.1812 128.672 68.9264 127.374 68.8922 126.161C68.78 122.196 68.3902 118.37 68.2762 114.438C67.501 88.3498 66.3399 62.2352 65.532 36.2537C65.2068 25.8309 64.422 15.4121 64.8925 5.1011C63.9097 6.46754 63.0535 7.82309 61.9184 9.17417ZM10.8834 53.4276C10.9932 53.7334 10.7974 54.0251 11.1048 54.3399C13.4368 54.0212 15.7389 54.0937 18.0762 53.675C18.046 53.3979 18.0602 53.1313 18.1199 52.8584C15.6998 53.1397 13.307 53.0797 10.8834 53.4276ZM26.8143 42.884C26.273 43.0679 25.2809 42.755 25.0268 43.1275C25.5739 43.0023 26.5525 43.2311 26.8143 42.884ZM67.0402 9.74391C66.8593 10.2618 67.1736 11.7965 67.2235 12.8847C68.8265 46.0613 69.1267 81.3664 70.7994 113.577C70.7581 95.6582 70.2868 77.5272 70.2356 59.4574C70.2021 45.9408 70.2552 32.3195 69.9175 18.9309C69.8139 14.9752 69.6284 10.8653 70.0199 7.08274C70.0696 6.65903 70.497 6.07728 70.0049 5.67875C69.5957 6.92958 67.3951 8.666 67.0402 9.74391ZM11.3145 57.1562C11.4153 57.6286 11.1927 58.0861 11.5092 58.5684C19.4159 57.9298 27.303 57.6578 35.2097 57.0192C34.9107 56.379 35.3314 55.7551 34.8706 55.1075C27.008 55.9319 19.1668 56.3563 11.3145 57.1562ZM20.1575 51.3066C19.6122 51.3985 18.6197 51.2609 18.37 51.5501C18.9086 51.4162 19.8957 51.6537 20.1575 51.3066ZM31.7241 42.5335C31.2453 42.7286 30.3183 42.3769 30.1163 42.7853C30.5942 42.6068 31.5275 42.8419 31.7241 42.5335ZM33.7682 42.3769C33.2938 42.4888 32.3552 42.3537 32.1604 42.6287C32.6495 42.409 33.5585 42.7599 33.7682 42.3769ZM13.6625 59.7367C13.2002 59.7906 11.8453 59.8619 11.9693 59.901C12.4648 59.8987 13.4385 60.0521 13.6625 59.7367ZM72.3332 10.3132C72.6025 39.6278 72.722 69.3865 73.3017 98.4565C73.7901 79.3924 74.0689 59.8676 74.7011 40.8102C74.8351 36.9573 75.0523 33.0664 75.0511 29.2157C75.0647 22.0578 75.0139 14.5879 75.5869 7.58108C75.6124 7.27319 75.9235 6.67773 75.4687 6.42293C74.5765 7.44271 73.4913 9.03832 72.3332 10.3132ZM25.2291 50.9636C24.6793 51.1387 23.7042 50.8433 23.4416 51.2071C23.9914 51.0319 24.975 51.3361 25.2291 50.9636ZM11.8285 62.5341C14.1731 62.3162 16.5182 62.257 18.8678 62.1145C18.6393 61.6696 18.7524 61.2405 18.5873 60.7902C16.2288 61.0993 13.9012 61.0006 11.5391 61.3764C11.6632 61.7496 11.6427 62.1329 11.8285 62.5341ZM19.0935 59.4101C17.7512 59.5823 15.9482 59.4409 14.9025 59.7937C16.2457 59.6049 18.046 59.7963 19.0935 59.4101ZM11.6701 65.325C11.5315 65.7279 11.5366 66.1375 11.8737 66.5706C19.8313 66.1599 27.7866 65.6237 35.7621 64.8797C35.5893 64.404 35.6502 63.939 35.5674 63.4674C27.6041 64.1536 19.6621 64.4397 11.6701 65.325ZM78.1147 10.1698C77.6258 11.0578 77.8712 13.5416 77.8419 15.2693C77.7372 20.5937 77.5179 25.871 77.4517 30.8129C77.1929 49.7957 76.4974 68.8586 76.0106 87.5552C75.9709 89.3075 75.7488 91.1015 75.8232 92.7421C75.8672 93.7715 76.0646 95.1338 75.8268 95.8746C76.2602 94.508 76.1192 92.4299 76.2873 90.6334C76.7694 85.3264 76.6462 79.7159 77.1396 74.7018C77.8195 67.7166 77.771 60.3721 78.4438 53.5202C79.1314 46.5604 79.3804 39.3799 79.7661 32.3394C80.1952 24.1482 80.6449 15.5737 81.6232 7.55805C81.6451 7.31683 82.0065 6.79051 81.5815 6.65402C80.675 7.94043 78.7651 8.95517 78.1147 10.1698ZM12.0163 69.1248C12.096 69.4877 12.0858 69.8464 12.2288 70.2038C14.6642 69.9734 17.0853 70.0096 19.5327 69.7212C18.8986 69.2827 19.4506 68.8988 18.9783 68.4678C16.6463 68.7865 14.3384 68.6553 12.0163 69.1248ZM83.5432 11.4052C82.5137 28.9659 81.2228 46.6983 80.2867 64.1965C79.9617 70.1038 79.7984 76.0186 79.2613 81.8493C79.1772 82.7475 78.9104 83.8629 79.2827 84.6485C80.4795 66.4858 83.01 47.808 84.3644 29.5606C84.5797 26.5467 85.0151 23.4594 85.2074 20.3693C85.4065 17.3213 85.4469 14.0404 86.0495 11.1948C86.2302 10.3427 87.0912 8.72842 86.5493 8.41949C85.8802 9.14048 84.5859 10.4341 83.5432 11.4052ZM12.2323 73.0022C12.2765 73.5221 12.1316 74.0417 12.418 74.5811C20.3836 74.0204 28.3256 73.7342 36.2894 73.2068C36.1719 72.5415 36.3598 71.8903 36.0446 71.2159C28.1123 71.8283 20.1785 72.2986 12.2323 73.0022ZM88.4858 12.1254C86.3002 34.7951 84.2577 57.8221 82.0762 80.2497C82.056 80.4576 82.136 82.6665 82.0296 82.8036C82.185 82.5935 82.068 81.2433 82.1526 80.5038C82.7892 75.0034 83.6202 69.4034 84.2627 64.2959C86.2001 48.79 88.0818 33.315 90.2045 18.0515C90.5261 15.7442 90.6742 13.312 91.1041 11.1683C91.2373 10.5313 91.8872 9.15788 91.4748 9.1222C90.4123 10.1258 89.6732 11.1443 88.4858 12.1254ZM20.5217 77.5016C19.9669 77.6013 19.7613 76.8986 19.5909 76.5483C17.2005 76.9478 14.849 76.7895 12.4578 77.2058C12.6318 77.4894 12.2761 77.7403 12.5844 78.0385C15.1734 77.9655 18.2306 77.8973 20.5217 77.5016ZM93.4869 13.0989C93.0497 13.864 92.9855 16.2416 92.7966 17.7532C89.7451 41.9617 86.4103 66.5832 83.6784 90.205C87.8176 64.0167 92.4441 37.3079 96.5173 11.1751C96.558 10.9181 97.0435 10.4309 96.5699 10.1919C95.7598 11.1904 94.0333 12.1467 93.4869 13.0989ZM12.7002 81.0927C12.7979 81.4564 12.6439 81.8085 12.9033 82.1796C20.846 81.5426 28.7726 81.2056 36.6893 80.7178C36.9016 80.2849 36.7091 79.8416 36.7597 79.4013C28.7518 79.7429 20.7251 80.4344 12.7002 81.0927ZM13.0284 84.8917C13.0843 85.195 13.0323 85.4933 13.0701 85.7957C17.0511 85.9705 21.1347 85.4066 25.1806 85.2085C29.236 85.0025 33.3199 85.1068 37.1298 84.4384C36.6919 83.867 35.808 84.2273 35.2653 84.2691C31.8011 84.5358 28.3815 84.8128 25.0098 85.0336C23.636 85.1207 22.172 85.3791 20.8367 85.0838C20.4394 84.7648 20.3211 84.4503 20.2653 84.1471C17.8547 84.4204 15.4453 84.5017 13.0284 84.8917ZM98.7979 13.669C94.6663 38.7049 90.3052 64.1562 86.5028 88.9316C90.4945 69.7113 93.9432 49.8646 97.9784 30.6713C99.2392 24.615 100.621 18.3136 101.443 12.3874C101.474 12.1382 101.814 11.6777 101.401 11.4833C100.524 12.2198 99.6655 12.9404 98.7979 13.669ZM27.1317 78.5407C25.5813 78.7283 23.5798 78.5945 22.3072 78.9786C23.8549 78.841 25.8703 78.8836 27.1317 78.5407ZM16.548 87.1251C16.0094 87.2591 15.011 87.0628 14.7605 87.3687C15.3018 87.1847 16.2853 87.4889 16.548 87.1251ZM13.3477 88.8573C13.5352 89.2251 13.1032 89.5561 13.5602 89.9363C21.4589 89.4476 29.3577 88.959 37.2519 88.5537C37.4772 88.0462 37.2447 87.5092 37.2459 86.9831C29.2736 87.8358 21.3214 88.1466 13.3477 88.8573ZM29.1599 76.9968C28.6118 77.1387 27.6229 76.9345 27.3724 77.2403C27.9195 77.1152 28.9161 77.3448 29.1599 76.9968ZM29.364 78.4012C28.7611 78.5572 27.7133 78.2751 27.3968 78.6364C27.9884 78.5216 29.0415 78.7037 29.364 78.4012ZM36.5586 76.5938C34.2534 76.4125 31.4591 76.7852 29.425 77.0925C31.802 76.9429 34.1745 76.8767 36.5586 76.5938ZM102.929 19.2885C98.3429 41.5386 93.6235 65.2695 89.6444 86.612C92.47 74.3712 95.2929 61.8464 98.1984 49.4589C100.999 37.5261 104.187 25.4106 106.597 13.5349C106.635 13.3278 107.023 12.7944 106.555 12.6309C103.027 14.7656 103.476 16.6323 102.929 19.2885ZM31.3986 78.2525C30.8533 78.3444 29.8608 78.2068 29.6111 78.4961C30.1583 78.3709 31.1454 78.6084 31.3986 78.2525ZM35.8179 91.9542C31.0065 92.3176 25.9759 92.7377 21.304 92.6815C21.1076 92.4803 20.9111 92.2792 20.7147 92.078C18.3562 92.3872 16.0241 92.3718 13.6665 92.6642C13.7565 93.0025 13.5958 93.3125 13.7936 93.6557C21.6909 93.025 30.0413 93.0166 37.6645 92.1227C37.2662 91.4862 36.3606 91.9124 35.8179 91.9542ZM18.7411 90.918C19.9128 90.9051 18.0897 90.9716 17.6808 90.8693C17.5546 91.0389 17.3169 90.9361 17.3979 91.1068C17.8448 91.0021 18.287 91.1561 18.7411 90.918ZM33.8107 78.1212C35.4586 78.2973 32.8082 77.8329 32.6471 78.3183C33.0402 78.2111 33.4105 78.3618 33.8107 78.1212ZM14.8863 94.9506C14.5481 95.0436 13.7654 94.8573 13.7143 95.1389C14.0525 95.0459 14.8352 95.2323 14.8863 94.9506ZM108.715 15.5285C108.276 16.1515 107.924 18.5159 107.597 19.9208C102.142 42.4234 97.1701 65.6498 92.0807 87.5427C98.5903 62.6747 105.486 37.8327 111.969 12.9551C111.239 13.807 109.542 14.3721 108.715 15.5285ZM36.4882 77.9103C35.9383 78.0855 34.9548 77.7813 34.7007 78.1538C35.2393 78.0199 36.2264 78.2574 36.4882 77.9103ZM14.0887 96.5594C14.3198 96.9543 14.0391 97.3173 14.3866 97.7259C22.2632 97.1443 30.1099 96.954 38.0014 96.2646C37.773 95.8197 37.9673 95.3859 37.7124 94.9315C29.8304 95.613 21.9725 95.8446 14.0887 96.5594ZM17.9233 94.7562C17.3734 94.9314 16.3984 94.6359 16.1357 94.9997C16.6676 94.8237 17.6606 95.12 17.9233 94.7562ZM20.3173 94.6241C19.7935 94.6501 18.3837 94.7356 18.4444 94.7802C19.0136 94.7479 20.0385 94.9537 20.3173 94.6241ZM113.648 16.4153C108.673 35.6656 103.037 55.3281 98.3001 74.3304C104.332 54.3519 110.229 34.3756 116.602 14.4128C115.437 15.1361 114.823 15.6842 113.648 16.4153ZM34.3271 99.9546C30.2416 100.218 26.007 100.574 22.0454 100.542C21.849 100.341 21.6526 100.14 21.4562 99.9388C19.1278 100.191 16.8239 100.152 14.5023 100.446C14.0187 102.078 16.108 101.581 17.5537 101.497C23.7421 101.155 29.5594 100.679 35.3695 100.337C36.3633 100.282 37.447 100.566 38.2357 99.9673C37.0279 99.6445 35.6555 99.8737 34.3271 99.9546ZM23.5254 94.4292C22.932 94.5773 21.8748 94.3031 21.5582 94.6645C22.1566 94.5918 23.2142 94.6905 23.5254 94.4292ZM25.7577 94.2897C25.1567 94.4124 24.113 94.2223 23.799 94.5337C24.3925 94.3856 25.4317 94.6589 25.7577 94.2897ZM118.111 17.5227C117.626 18.1687 117.398 19.904 117.028 21.0898C111.326 39.2958 106.1 57.4988 100.454 75.3232C100.787 75.4889 100.705 75.0007 100.736 74.9269C100.88 74.5994 101.041 74.2727 101.148 73.9602C107.816 54.3869 114.717 34.4902 121.168 15.099C120.475 15.9358 118.974 16.368 118.111 17.5227ZM14.7273 104.491C14.8582 104.906 14.5578 105.302 14.9309 105.736C22.7968 105.355 30.6676 104.715 38.5546 104.108C38.3262 103.664 38.5659 103.223 38.2656 102.775C30.4137 103.4 22.5783 103.883 14.7273 104.491ZM31.3684 93.9714C29.9749 94.0911 28.1059 94.0051 26.9977 94.3467C28.3957 94.1437 30.249 94.3543 31.3684 93.9714ZM19.083 102.711C21.0171 102.759 17.0276 102.575 16.9361 102.938C17.6638 102.805 18.3616 103.063 19.083 102.711ZM21.9402 102.509C21.3374 102.665 20.2896 102.383 19.973 102.744C20.5808 102.663 21.629 102.77 21.9402 102.509ZM34.4813 93.8724C33.8981 93.6618 33.2854 94.0011 32.7116 93.7826C32.2234 93.9857 31.2031 94.0306 31.9844 94.0749C33.3219 94.1615 35.975 93.7323 36.8088 93.637C36.0272 93.7681 35.266 93.5159 34.4813 93.8724ZM14.9617 108.528C15.2709 108.809 14.9237 109.069 15.0977 109.352C19.0444 109.158 22.9857 109.064 26.9431 108.67C29.8674 108.729 33.0193 108.406 35.8464 108.261C36.7948 108.212 37.8897 108.455 38.7031 107.899C38.2617 107.394 37.3898 107.697 36.8471 107.739C34.6961 107.873 32.701 107.957 30.603 108.111C27.8451 108.31 24.993 108.922 22.3237 108.474C21.9579 108.24 22.1407 108.023 21.8288 107.791C19.5395 108.154 17.272 107.941 14.9617 108.528ZM23.9928 102.361C23.4533 102.512 22.4644 102.307 22.2053 102.604C22.7457 102.437 23.7302 102.725 23.9928 102.361ZM122.686 18.5518C115.964 38.6322 108.865 58.6952 102.143 78.7755C109.885 59.4939 116.924 39.545 124.625 20.3617C125.124 19.115 125.98 17.9182 125.81 16.5488C124.741 17.5103 123.716 17.9894 122.686 18.5518ZM15.2036 112.256C15.2388 112.608 15.2551 112.977 15.4161 113.335C23.3229 112.696 31.2055 112.507 39.1158 111.802C38.8308 111.405 39.1389 111.035 38.8179 110.636C30.9359 111.317 23.083 111.624 15.2036 112.256ZM29.2441 102.026C28.6907 102.268 27.7125 101.864 27.4566 102.27C28.0064 102.095 28.99 102.399 29.2441 102.026ZM127.464 20.3336C123.667 29.1718 120.325 38.9497 116.648 48.2445C109.399 66.5548 102.379 85.1347 95.2224 103.575C91.9962 111.854 88.3439 120.858 85.1366 129.456C84.9042 130.097 84.3783 130.666 85.237 130.947C85.9186 131.171 86.0966 130.369 86.2739 129.917C87.9699 125.66 89.6698 121.161 91.1153 117.544C104.271 84.4532 117.201 51.5359 130.494 18.7439C129.468 19.3984 128.473 19.8204 127.464 20.3336ZM123.72 42.3218C125.845 43.0043 127.943 44.0446 130.08 44.6692C130.642 43.2584 131.114 42.0187 131.822 40.3891C132.192 39.5374 132.917 36.5888 134.01 36.0376C134.435 35.8233 135.836 36.2386 136.652 36.4932C142.755 38.4195 149.65 40.8584 155.159 42.2812C158.027 36.4826 159.019 28.0416 151.637 23.5923C149.001 22.001 145.685 20.8544 142.705 19.8069C139.593 18.7115 136.434 17.8311 133.627 16.7497C133.561 16.8052 133.505 16.8527 133.439 16.9081C130.319 25.3848 126.921 33.8404 123.72 42.3218ZM15.6172 116.142C15.4455 116.828 15.4902 117.506 15.7677 118.212C23.612 117.563 31.447 117.255 39.2975 116.488C39.3493 115.856 39.3019 115.227 39.1381 114.585C31.2956 115.201 23.4633 115.459 15.6172 116.142ZM31.2887 113.647C30.6953 113.795 29.638 113.521 29.33 113.891C29.9234 113.743 30.9627 114.017 31.2887 113.647ZM33.7007 113.516C34.888 113.379 33.6208 113.663 32.6404 113.467C32.5142 113.637 32.2757 113.551 32.3575 113.705C32.9582 113.758 33.2384 113.57 33.7007 113.516ZM36.3688 113.313C35.8275 113.497 34.8354 113.184 34.5813 113.557C35.1181 113.456 36.1106 113.594 36.3688 113.313ZM38.5926 113.165C38.115 113.168 36.7745 113.307 36.8899 113.337C37.4034 113.336 38.3685 113.48 38.5926 113.165ZM98.5717 105.792C100.734 106.284 102.865 107.359 105.034 107.735C112.985 87.243 121.206 66.7638 129.282 46.278C127.114 45.886 124.998 44.5273 122.811 44.3265C114.797 64.8235 106.469 85.2977 98.5717 105.792ZM104.106 116.838C110.365 118.872 116.6 121.038 122.851 123.222C133.421 96.8869 143.109 70.5279 154.163 44.2151C147.74 42.0485 141.285 40.4652 134.843 38.4732C124.987 64.2732 114.211 90.7659 104.106 116.838ZM70.871 117.289C70.8713 116.78 70.9975 115.766 70.7618 115.964C70.8784 119.846 70.8142 124.245 70.9156 128.075C70.9297 128.652 70.8663 129.501 71.1871 129.566C71.2236 125.683 70.9252 121.159 70.871 117.289ZM124.782 125.357C123.775 126.33 123.442 127.326 123.29 128.329C125.589 128.276 127.032 126.396 128.178 124.845C131.926 119.772 134.078 113.907 136.317 108.923C139.487 101.852 142.914 94.7092 145.797 87.6248C148.585 80.7951 151.153 73.5459 153.687 66.245C155.485 61.0904 157.597 55.6245 158.448 50.1674C158.79 47.9863 159.508 43.4837 156.087 44.4623C146.14 71.4526 135.043 98.3899 124.782 125.357ZM87.7141 132.799C90.9183 134.024 94.8454 135.374 98.7837 136.682C102.439 137.895 106.622 139.348 109.932 138.924C117.315 137.978 119.423 129.713 121.754 125.385C117.287 123.676 111.606 121.602 106.607 119.752C105.591 119.379 102.164 118.453 101.582 117.541C101.05 116.715 102.205 114.663 102.58 113.711C103.173 112.21 103.611 111.111 104.219 109.836C102.106 108.92 99.9762 108.162 97.8594 107.488C94.3462 115.913 91.2368 124.366 87.7141 132.799Z" fill="#282828"/>
</svg>
