<svg width="99" height="112" viewBox="0 0 99 112" fill="none" xmlns="http://www.w3.org/2000/svg">
<path fill-rule="evenodd" clip-rule="evenodd" d="M67.157 14.9885C67.4794 15.087 68.0269 15.2097 67.7671 15.6801C67.4633 16.224 66.9341 15.7818 66.0675 15.7343C62.1028 15.477 58.3791 16.8745 55.4363 19.1027C52.7334 21.1432 49.6452 25.2837 47.4587 28.696C47.0121 29.4021 46.9407 30.0548 46.2675 29.8377C45.2443 29.5205 47.0653 27.4447 47.504 26.8354C51.3078 21.4585 54.8267 17.0865 60.2935 15.5429C62.2238 14.9798 65.1601 14.4096 67.157 14.9885Z" fill="#4B4B4B"/>
<path fill-rule="evenodd" clip-rule="evenodd" d="M57.8968 19.0695C56.6226 20.2552 54.7514 21.3888 53.5376 22.8064C53.358 23.0077 52.5863 24.7065 51.9876 24.5179C51.3259 24.3229 52.0292 23.1495 52.555 22.5131C53.517 21.3502 56.2832 19.1362 57.4124 18.5183C57.8461 18.5971 57.8213 18.8499 57.8968 19.0695Z" fill="#4B4B4B"/>
<path fill-rule="evenodd" clip-rule="evenodd" d="M62.923 32.4661C62.1422 31.7834 61.7754 30.6082 60.5028 29.9728C59.6651 29.5534 58.6985 29.7746 57.9967 29.2701C58.4286 28.149 60.1232 28.6821 61.2141 29.2557C62.1379 29.7363 64.1122 31.6501 62.923 32.4661Z" fill="#4B4B4B"/>
<path fill-rule="evenodd" clip-rule="evenodd" d="M57.3529 31.2804C56.5244 31.1955 55.179 31.2753 54.93 30.4276C55.5035 30.0012 55.2632 29.1753 55.9271 28.9214C56.2554 28.9944 56.3575 29.1624 56.4911 29.3243C56.2998 29.6891 56.2257 30.0081 56.3389 30.2536C56.5366 30.2391 56.4355 29.8061 56.66 29.5732C56.8299 29.557 56.9813 29.4788 57.1645 29.4952C57.5215 29.6893 57.3903 30.0684 57.396 30.4001C57.6596 30.3473 57.7945 29.9604 57.9991 29.729C58.1955 29.778 58.3558 29.7215 58.5919 29.8684C58.6714 30.0642 58.5869 30.3242 58.5375 30.5704C58.8863 30.6605 58.9703 30.0983 59.3455 30.2537C59.6579 30.4212 59.7477 30.6759 59.533 31.0499C59.843 31.1616 59.958 30.7762 60.2681 30.8878C60.518 30.9852 60.5095 31.165 60.6379 31.2974C60.5849 31.5514 60.426 31.5444 60.342 31.7222C60.7166 31.859 61.0222 31.5754 61.2858 31.9069C61.3646 32.1848 61.2484 32.3501 61.0417 32.6265C61.1612 32.7371 61.4592 32.6519 61.7592 32.9061C61.745 33.1386 61.627 33.5503 61.3539 33.5628C61.5372 33.68 61.7982 33.855 61.812 34.1899C61.0788 34.5907 61.478 35.0392 61.1739 35.7445C60.2082 35.9906 60.4502 34.9316 60.2612 34.4826C58.2551 37.0144 53.9495 33.4965 57.3529 31.2804ZM58.6894 32.4329C58.8004 32.2381 58.8104 32.0956 58.5899 32.0371C58.3257 32.1721 58.3395 32.507 58.6894 32.4329ZM58.0703 34.3519C58.4763 34.4826 58.8329 34.4752 59.0396 34.098C58.7716 33.7556 58.1527 33.7524 58.0703 34.3519Z" fill="#4B4B4B"/>
<path fill-rule="evenodd" clip-rule="evenodd" d="M73.6077 37.5798C73.4657 37.6166 73.3502 37.7192 73.2215 37.789C72.3183 37.1584 71.8083 36.0997 70.6146 35.6789C69.6957 35.3471 68.7385 35.8318 68.0799 35.2323C68.5494 34.2334 70.2863 34.4787 71.3306 34.9519C72.5053 35.4947 73.7518 36.6199 73.6077 37.5798Z" fill="#4B4B4B"/>
<path fill-rule="evenodd" clip-rule="evenodd" d="M81.7086 42.3159C82.5755 42.3769 81.7703 43.638 81.5499 44.0291C79.3813 47.7831 77.4221 51.349 76.4805 55.6299C75.5496 59.8879 75.4887 63.1447 75.3431 67.0802C75.3205 67.6662 75.2724 68.3863 74.7872 68.4662C73.8627 68.6079 74.2349 66.1403 74.2549 65.6795C74.5158 59.3468 75.4253 52.6649 79.5855 45.4749C80.1899 44.4234 80.9878 43.0784 81.4476 42.4748C81.5083 42.3454 81.5919 42.3062 81.7086 42.3159Z" fill="#4B4B4B"/>
<path fill-rule="evenodd" clip-rule="evenodd" d="M63.6358 39.4278C64.3163 40.1162 62.8742 40.6377 61.946 40.2111C61.6461 40.0757 60.6126 39.1209 60.7485 38.7512C61.2096 37.4883 61.8485 39.0978 62.5393 39.3582C62.9794 39.5208 63.1617 39.2152 63.6358 39.4278Z" fill="#4B4B4B"/>
<path fill-rule="evenodd" clip-rule="evenodd" d="M58.6632 39.384C58.7098 39.5496 58.7528 39.7231 58.5723 39.9843C58.9369 40.7165 59.6658 40.3286 60.2405 40.4517C60.8673 40.5861 61.1259 41.2584 61.8797 41.1843C62.2536 41.3673 62.1417 41.7475 62.3474 42.0029C63.088 42.3844 63.6387 42.3139 64.1584 42.1668C65.048 42.3946 64.4998 43.8851 63.7162 43.7172C63.3314 43.659 63.578 43.3591 63.2638 43.2732C62.7619 43.0771 62.4596 43.088 61.8784 42.9992C60.7272 44.162 58.4747 43.0423 59.022 41.4316C58.5222 41.1903 58.1635 40.8935 57.9305 40.5536C57.6832 40.4478 57.6079 40.7501 57.3466 40.5927C56.6365 39.9836 57.8819 38.8852 58.6632 39.384ZM60.7132 42.461C60.4969 42.4318 60.1824 42.143 60.037 42.2889C60.2704 42.4446 60.4431 42.7701 60.7132 42.461Z" fill="#4B4B4B"/>
<path fill-rule="evenodd" clip-rule="evenodd" d="M73.5674 63.8727C72.4668 63.5413 72.8916 62.1182 72.9606 61.2331C73.165 58.4233 73.4786 54.6629 75.0048 51.9733C75.3013 52.0803 75.2659 51.9761 75.472 52.1561C75.3602 53.2322 74.9684 54.2257 74.7537 55.2614C74.3327 57.2549 74.1499 59.2604 73.9994 61.1972C73.9197 62.1052 74.0775 63.1062 73.5674 63.8727Z" fill="#4B4B4B"/>
<path fill-rule="evenodd" clip-rule="evenodd" d="M72.5869 56.8666C72.7178 58.1483 72.3348 60.1614 72.275 61.4681C72.2604 61.7791 72.52 63.1473 71.7251 63.0359C70.9736 62.9324 71.3819 60.5855 71.4187 60.1474C71.5032 58.8683 71.59 58.1241 71.9094 56.9458C72.0979 56.8656 72.2753 56.7087 72.5869 56.8666Z" fill="#4B4B4B"/>
<path fill-rule="evenodd" clip-rule="evenodd" d="M50.2919 52.8008C52.79 51.678 55.3947 54.6791 53.5247 56.6663C52.5104 57.7474 50.1807 57.5872 49.4581 56.1575C48.9596 55.1797 49.4611 54.1175 50.2919 52.8008ZM50.6699 55.3629C51.257 55.2271 51.8044 54.9938 52.316 54.6554C51.6901 54.7124 51.1514 54.9673 50.6699 55.3629Z" fill="#4B4B4B"/>
<path fill-rule="evenodd" clip-rule="evenodd" d="M50.0816 61.1914C51.0973 61.3589 52.2649 62.3339 51.4673 63.62C50.046 65.9043 46.3619 62.8997 48.918 61.2765C49.1953 61.0925 49.5357 61.0974 50.0816 61.1914Z" fill="#4B4B4B"/>
<path fill-rule="evenodd" clip-rule="evenodd" d="M41.181 59.2426C42.4502 59.4176 43.2364 60.3535 42.9786 61.202C42.1476 63.8895 38.0556 61.9306 39.7551 59.6818C40.0474 59.2846 40.4673 59.2018 41.181 59.2426ZM40.7665 60.7053C40.6376 60.938 40.8438 61.0457 41.0149 61.1671C41.1844 61.151 41.3362 61.0915 41.4821 60.9841C41.3568 60.7254 41.0592 60.6095 40.7665 60.7053Z" fill="#4B4B4B"/>
<path fill-rule="evenodd" clip-rule="evenodd" d="M56.2295 71.0563C59.3374 70.6357 61.4974 73.7735 59.5042 75.8404C58.674 76.6925 56.873 77.2851 55.4424 76.5091C53.3326 75.3593 53.9721 72.273 56.2295 71.0563ZM55.501 74.1899C56.3753 73.929 57.2064 73.5784 57.9848 73.0979C56.991 73.048 56.2574 73.6553 55.501 74.1899ZM56.0373 75.0276C56.8884 74.8761 57.9461 74.3677 58.4407 73.9042C57.6593 74.3107 56.8303 74.6166 56.0373 75.0276Z" fill="#4B4B4B"/>
<path fill-rule="evenodd" clip-rule="evenodd" d="M39.8002 65.9332C41.6343 66.383 42.5606 67.3642 41.9448 68.9307C41.0897 71.1248 36.756 71.3526 36.287 68.7979C35.9477 66.8958 38.0019 65.4882 39.8002 65.9332ZM37.732 68.5396C38.5454 68.4094 39.2532 68.0191 39.9521 67.6072C39.0815 67.5965 38.4141 68.1029 37.732 68.5396ZM38.7323 69.203C39.3607 69.3839 40.4185 69.0387 40.2998 68.4633C39.8243 68.8255 39.2343 68.9059 38.7323 69.203Z" fill="#4B4B4B"/>
<path fill-rule="evenodd" clip-rule="evenodd" d="M46.5438 77.9048C47.6399 78.204 48.0737 78.5554 48.2346 79.1016C48.7828 80.9847 45.7236 82.4845 44.3295 81.0018C43.7126 80.3327 43.6031 78.2464 44.9344 77.7249C45.3512 77.568 45.9 77.7361 46.5438 77.9048Z" fill="#4B4B4B"/>
<path fill-rule="evenodd" clip-rule="evenodd" d="M46.7965 100.306C47.0911 99.5603 47.8999 99.1244 48.5075 98.6552C51.5939 96.2467 54.7745 93.5581 57.9212 90.9015C59.1746 89.8422 60.4632 88.6881 61.6574 87.7143C63.2779 87.6768 61.137 89.259 60.7708 89.596C56.8922 93.2256 52.9014 96.413 48.9027 99.5973C48.3298 100.053 47.5097 101.073 46.7965 100.306Z" fill="#4B4B4B"/>
<path fill-rule="evenodd" clip-rule="evenodd" d="M55.4236 91.9528C54.2199 93.4666 52.3628 95.006 50.7016 96.4499C50.2703 96.825 49.48 97.6215 48.8659 96.9833C49.5189 95.8977 50.7117 95.1677 51.6966 94.3384C52.7154 93.4771 53.6575 92.5587 54.6786 91.7527C54.7573 91.6656 54.8717 91.6831 54.946 91.5853C55.258 91.6437 55.3386 91.7929 55.4236 91.9528Z" fill="#4B4B4B"/>
<path fill-rule="evenodd" clip-rule="evenodd" d="M33.0851 54.3599C34.8815 53.7819 37.2272 55.2067 36.3506 56.9826C34.9767 59.7513 30.1515 56.8222 33.0851 54.3599ZM34.2298 56.695C34.4798 56.8106 34.9508 56.6199 34.8386 56.3937C34.6635 56.5628 34.4048 56.5259 34.2298 56.695Z" fill="#4B4B4B"/>
<path fill-rule="evenodd" clip-rule="evenodd" d="M49.0472 70.2368C50.3556 70.4457 51.2125 71.4902 51.1273 72.3956C51.0227 73.503 49.9866 74.6303 49.0422 74.8183C46.5575 75.3085 45.255 72.2679 47.044 70.714C47.4483 70.3612 48.2518 70.1092 49.0472 70.2368ZM47.553 72.6163C48.0127 72.2668 49.2636 72.1344 49.2717 71.7548C48.7814 72.1288 47.7819 72.1314 47.553 72.6163Z" fill="#4B4B4B"/>
<path fill-rule="evenodd" clip-rule="evenodd" d="M30.9997 68.463C32.4341 68.8119 32.9302 69.7167 32.3492 70.7859C31.0992 73.0907 27.5302 70.8521 29.155 69.0035C29.5858 68.5144 30.0089 68.2231 30.9997 68.463Z" fill="#4B4B4B"/>
<path fill-rule="evenodd" clip-rule="evenodd" d="M33.9486 75.7505C38.9066 74.8679 37.1154 81.9015 33.2943 79.7119C32.0209 78.9882 32.3573 76.706 33.9486 75.7505Z" fill="#4B4B4B"/>
<path fill-rule="evenodd" clip-rule="evenodd" d="M71.3249 37.6769C71.6501 37.7579 71.7683 37.345 72.0979 37.4369C72.6061 37.6167 72.2144 38.1432 72.3778 38.4456C72.7164 38.5593 72.7814 38.0156 73.1509 38.2056C73.4865 38.3457 73.5677 38.5793 73.3753 38.9265C73.673 38.8223 74.0527 38.9704 74.175 39.2384C74.0282 39.631 73.8121 39.8863 73.5821 40.0903C73.7223 40.1175 73.6828 40.2214 73.7879 40.2624C74.2943 40.3039 74.4072 39.3749 75.0993 39.8744C75.3231 40.6776 74.254 41.1602 73.6313 41.3855C72.7631 40.955 72.6188 40.247 72.0755 39.6954C71.457 42.7313 66.0917 41.4738 67.635 38.5049C67.3719 38.2921 66.4708 39.1891 66.1758 38.3948C66.5527 37.7982 66.8784 37.6958 67.0576 36.9303C67.1514 36.8935 67.2976 36.9689 67.373 36.8698C67.8135 36.9498 67.6709 37.2522 67.8686 37.4211C68.1922 37.3637 68.0637 36.9464 68.3884 36.7243C68.47 36.7744 68.5412 36.7655 68.5866 36.7098C69.0189 36.7866 68.9197 37.0783 69.1995 37.215C69.488 37.2725 69.5333 36.7302 69.8033 36.7254C70.1301 36.8437 70.4261 36.9867 70.2989 37.2767C70.6706 36.6506 71.4223 37.1458 71.3249 37.6769ZM70.5243 38.9894C70.2894 39.3659 71.018 39.6868 71.1183 39.1293C70.9046 39.0551 70.6769 38.9296 70.5243 38.9894Z" fill="#4B4B4B"/>
<path fill-rule="evenodd" clip-rule="evenodd" d="M74.3214 13.6678C79.334 15.2685 82.5145 18.8491 84.7427 22.2036C87.9878 27.0705 89.1301 33.4489 85.7689 40.5751C84.6449 42.9582 83.289 45.0512 81.9037 47.3869C79.2394 51.8728 78.0802 56.9365 77.5981 61.2663C77.1288 65.4287 76.8078 70.2386 74.528 75.0922C70.0769 84.5694 62.7659 90.0466 56.0874 95.8068C53.6591 97.9081 51.1248 99.9136 48.3907 101.841C47.4936 102.48 46.3438 103.375 45.7115 103.573C44.4817 103.955 41.8765 103.665 40.2792 103.423C34.5539 102.551 28.2234 100.337 22.7075 97.1974C21.0582 96.264 19.4528 95.1572 17.9353 94.0847C14.7594 91.8575 12.485 89.8639 10.4362 87.0511C9.60709 85.9023 8.06555 83.9586 8.12961 82.8405C8.35914 78.8658 9.39348 74.5881 10.513 70.0895C11.5987 65.7229 12.9893 61.0307 15.3335 56.5016C17.6127 52.1105 20.7027 48.4256 23.6362 45.6141C26.5776 42.8057 29.8218 40.0972 33.2161 37.792C36.6409 35.4623 39.8441 33.001 42.7728 29.979C45.7733 26.8851 48.0971 22.7201 51.2103 19.4071C56.7133 13.5333 65.1724 10.7536 74.3214 13.6678ZM79.3329 48.8883C80.5708 46.5043 82.0926 44.24 83.4113 41.6245C87.4544 33.5938 86.3997 27.1498 82.4769 21.8554C80.5133 19.2028 78.1065 16.5679 73.6094 15.1773C67.8586 13.3976 63.303 14.2158 59.0361 15.8452C54.506 17.5715 51.7663 21.1752 48.3944 25.5576C46.7534 27.6937 45.3115 29.6081 43.5966 31.3797C38.451 36.6762 32.218 39.9883 27.0241 44.5855C32.1582 47.2315 37.9786 47.7411 42.7215 47.8486C38.5962 46.231 43.2889 44.1599 45.1802 43.6182C47.6349 42.9243 49.7233 42.6862 52.2567 43.4291C50.1913 39.8297 49.3472 35.5452 51.2737 30.6991C53.3742 25.4037 57.5194 22.2482 61.9154 20.9867C64.7232 20.1855 68.1779 20.0175 71.4566 21.3051C72.3511 21.6538 73.2013 21.9763 74.1396 22.5327C77.0549 24.25 78.6911 27.6367 79.4221 30.3167C80.1772 33.1059 80.2216 36.4798 78.9516 39.6134C77.8738 42.2594 75.5055 44.6744 73.2561 46.156C70.3066 48.0994 66.9124 49.6426 63.1248 49.454C64.9162 51.1685 65.8753 53.5655 66.2566 55.8642C66.4033 56.756 66.8394 58.8584 66.1819 59.5908C65.2303 60.6259 62.9049 58.9209 61.5602 58.324C63.5927 63.0355 67.523 68.0335 74.3773 70.6608C76.3135 63.4688 75.5244 56.2211 79.3329 48.8883ZM60.2414 23.373C63.5589 22.3533 67.471 22.7991 71.1332 22.6123C67.0837 21.2148 63.323 21.8712 60.2414 23.373ZM60.3985 24.4231C63.6484 24.1481 67.2794 24.8291 70.1708 23.6704C66.8333 23.63 63.0237 23.2876 60.3985 24.4231ZM78.2962 34.087C78.2006 30.9019 77.0981 27.7867 74.9264 25.6154C76.1436 28.3671 77.4513 31.408 78.2962 34.087ZM77.3526 35.5063C76.9658 31.7358 74.9397 28.6143 73.7524 25.1577C73.4337 29.1611 76.0476 32.3394 77.3526 35.5063ZM76.0297 35.3442C76.008 35.3902 76.0538 35.4534 76.1095 35.3754C74.9058 32.4748 72.9725 29.6979 72.7651 26.4691C72.7317 26.0388 72.9311 25.5359 72.633 25.1657C71.3383 29.5143 74.2118 32.2223 76.0297 35.3442ZM56.5744 26.5971C60.9714 25.0729 66.8111 27.105 70.7803 24.5431C70.794 24.494 70.8077 24.4449 70.7366 24.4353C66.5486 26.3585 60.2752 24.0031 56.5744 26.5971ZM68.7901 26.9785C64.9655 27.991 59.3119 27.0476 55.638 28.382C54.984 28.6259 53.9402 29.1351 53.5919 29.5527C53.2248 29.9902 53.0473 30.928 52.7903 31.6533C50.8618 37.0248 52.1983 42.0093 56.006 44.9818C59.0669 47.3728 64.686 48.5296 67.6958 47.4806C70.6433 46.4435 73.4389 44.4855 75.8557 41.6267C76.3964 35.5689 69.7101 32.3449 70.9157 26.0202C70.32 26.4411 69.5363 26.7796 68.7901 26.9785ZM43.1301 46.2208C46.5686 48.4324 51.3149 49.1945 53.6476 47.6365C52.6409 47.8064 51.642 47.8796 50.3249 47.7652C49.706 47.7144 46.8412 47.5136 47.2939 46.6741C47.5861 46.1348 48.9968 46.7121 49.6601 46.7893C50.5803 46.9032 51.3696 46.8934 52.0624 46.8279C51.468 46.705 50.1766 46.7367 50.5975 45.9846C50.9743 45.3059 53.4038 46.3893 54.1992 46.0463C50.0304 43.6588 46.0742 44.5293 43.1301 46.2208ZM55.2842 47.1135C55.424 46.9775 55.6024 46.92 55.8639 47.0673C56.1821 47.3547 55.9088 47.8741 55.7203 48.354C56.2972 47.5719 57.2869 48.0395 56.4932 49.2813C57.3002 49.4145 57.8719 48.9843 58.2635 48.0937C57.2769 47.6999 56.3921 47.11 55.4458 46.5505C55.4294 46.7255 55.123 47.0143 55.2842 47.1135ZM59.1668 50.9497C59.4232 51.5487 59.7681 52.1005 60.1253 52.6661C60.4622 53.2148 61.0326 53.7094 61.0838 54.3825C60.1516 55.2165 58.9129 52.6107 58.5882 51.976C58.4258 51.6587 58.3502 51.1575 58.0906 51.2468C57.7713 54.0888 61.8109 56.8704 64.7991 57.9721C64.4162 54.7747 64.1168 51.2197 60.6181 49.4563C61.7542 50.235 62.4215 51.3661 62.9443 52.4227C63.4707 53.4716 64.1446 54.6688 63.9815 55.9569C63.777 56.0495 63.5559 56.1175 63.2859 56.0485C62.4964 53.9535 61.9993 51.4192 59.753 50.1078C60.2526 50.7925 61.1351 51.3271 60.9699 52.2788C60.8345 52.4255 60.6255 52.4076 60.434 52.4327C59.9254 52.0076 59.6163 51.1794 59.1668 50.9497ZM54.571 50.4097C51.727 51.6685 48.3418 52.5711 45.0184 52.6814C45.2479 56.5448 39.4032 55.8262 39.5611 52.7852C37.1391 52.6482 34.5457 52.0724 31.9611 51.5182C31.3515 53.8932 29.1556 54.8604 27.0074 54.5036C23.0601 60.4669 22.348 66.848 23.304 71.6569C27.316 71.5701 29.2113 75.4299 26.4353 78.2484C29.1625 81.8881 34.8001 84.93 40.617 85.9281C40.622 85.4765 40.5053 84.7415 40.8939 84.1582C41.8672 82.6961 44.4667 83.9002 44.5483 85.311C44.5669 85.5722 44.5195 85.8531 44.3141 86.2085C46.6464 86.0746 48.782 85.4558 50.7908 84.5245C50.4716 81.2522 54.6279 79.0354 57.7104 80.5185C59.8724 78.8214 61.9032 76.801 63.7723 74.3819C62.6712 73.3084 62.674 71.1776 64.3797 70.3277C62.9392 69.3124 61.9395 68.1243 60.9398 66.9362C59.4486 67.652 57.7535 67.8983 56.1384 67.0326C53.495 65.6209 53.8616 61.6362 56.8005 60.6774C55.6551 57.473 54.6989 54.188 55.1391 50.3681C54.8246 50.1729 54.7523 50.3261 54.571 50.4097ZM51.6896 50.1843C51.8714 50.0193 52.5825 49.6343 52.3231 49.4424C52.0911 49.5334 51.5742 49.7673 51.6896 50.1843ZM49.5478 49.7937C49.362 50.1476 49.08 50.2644 48.9255 50.7122C49.585 50.6972 50.2059 50.6036 50.5987 49.9312C50.427 49.6738 49.9087 49.9707 49.5478 49.7937ZM47.0056 51.0341C47.6297 51.1141 48.2085 50.1877 48.3846 49.6939C47.7919 49.7077 47.2255 50.6481 47.0056 51.0341ZM56.5604 53.6892C56.7341 53.4213 56.7489 53.2093 56.5782 53.0702C56.4589 53.323 56.5021 53.5122 56.5604 53.6892ZM46.1594 49.2799C45.7754 49.9738 45.3032 50.4338 44.9148 51.1169C45.9404 51.408 46.3278 50.1257 46.9782 49.5084C46.6558 49.3101 46.4601 49.4243 46.1594 49.2799ZM44.1882 49.3096C43.8261 50.0574 43.0573 50.6648 42.8713 51.2999C43.9635 51.4899 44.3694 49.988 45.1118 49.3159C44.7656 49.2081 44.4813 49.2696 44.1882 49.3096ZM57.0492 56.0207C57.3634 55.6352 57.3179 55.3907 57.5841 54.8867C57.4569 54.7554 57.3449 54.612 57.2213 54.4731C56.7973 55.1514 56.7153 55.5458 57.0492 56.0207ZM42.0537 49.2847C41.6719 50.0339 41.1983 50.5569 40.7808 51.2015C41.1111 51.303 41.3766 51.2614 41.6799 51.2799C42.0225 50.5335 43.0354 49.7491 43.025 49.2098C42.7052 49.2665 42.3663 49.2433 42.0537 49.2847ZM57.6239 57.7689C57.9968 56.8983 58.3429 56.5252 58.5167 55.8763C58.3577 55.8324 58.3807 55.7235 58.2413 55.6782C58.0541 56.4761 57.1412 57.2088 57.6239 57.7689ZM40.8789 49.1895C40.6737 49.2637 40.3957 49.1916 40.1395 49.1733C39.7089 49.7856 39.2405 50.3378 38.8667 51.0901C39.1498 51.1915 39.3797 51.145 39.6498 51.214C39.9699 50.4952 40.9531 49.7537 40.8789 49.1895ZM58.1912 59.3327C58.545 58.3821 59.2909 57.6024 59.438 56.6891C59.3582 56.658 59.2783 56.6268 59.2065 56.5988C58.8805 57.7509 57.7763 58.6085 58.1912 59.3327ZM38.5243 49.0697C38.112 49.7435 37.5903 50.1479 37.2042 50.8864C38.1378 51.2323 38.6072 49.5556 38.9843 49.0767C38.8618 49.1559 38.7124 49.1521 38.5243 49.0697ZM36.5419 48.9227C36.1845 49.5 35.715 49.834 35.41 50.5406C35.6867 50.6757 35.9284 50.7246 36.157 50.7412C36.5345 50.081 37.009 49.6763 37.4048 49.0777C37.0767 48.9316 36.8359 49.001 36.5419 48.9227ZM59.106 60.9413C59.4209 60.5743 59.8065 59.5362 60.2271 58.9654C60.091 58.7127 60.0049 58.4342 59.8455 58.1906C59.4446 58.7601 58.2221 60.8507 59.106 60.9413ZM34.7915 48.6847C34.3628 49.1526 33.8912 49.5311 33.5361 50.1637C33.8694 50.3391 34.1364 50.3343 34.399 50.3188C34.7085 49.7228 35.1229 49.3854 35.4586 48.8541C35.2103 48.7391 35.0581 48.8612 34.7915 48.6847ZM33.0657 48.3746C32.6237 48.7103 32.2903 49.297 31.8825 49.7004C32.0662 49.772 32.2499 49.8437 32.4335 49.9153C32.8689 49.5135 33.2649 49.0147 33.6529 48.5128C33.4102 48.3457 33.3032 48.5126 33.0657 48.3746ZM30.4002 49.2948C30.5117 49.1387 30.806 49.4168 30.9874 49.4331C31.2469 48.8629 31.6645 48.6992 31.9386 48.1982C31.7549 48.1266 31.5712 48.055 31.3876 47.9834C31.1119 48.4474 30.4779 48.8896 30.4002 49.2948ZM25.6612 47.2746C25.9007 47.368 26.1324 47.4583 26.3719 47.5517C26.6259 47.1337 26.9418 46.8849 27.2183 46.5391C26.9055 46.4807 26.9443 46.2781 26.6235 46.2165C26.3209 46.5974 25.9368 46.8105 25.6612 47.2746ZM29.6621 47.492C29.3936 47.8409 28.8757 48.3375 28.819 48.6782C29.0266 48.7592 29.2422 48.8433 29.4499 48.9243C29.7135 48.265 31.0482 47.6605 29.6621 47.492ZM28.1325 46.9863C27.7497 47.1364 27.4893 47.5883 27.1983 47.9647C27.3744 48.2329 27.7579 48.1012 27.873 48.3185C28.2459 47.9286 28.2889 47.637 28.68 47.2088C28.5273 47.0314 28.3183 47.0134 28.1325 46.9863ZM59.5862 62.1083C59.8267 62.3201 59.7968 62.6441 60.0837 62.8376C60.2996 62.2595 60.6728 61.5886 61.0563 60.9761C60.9715 60.6346 60.8447 60.322 60.6671 60.0169C60.2116 60.8826 60.0552 61.0938 59.5862 62.1083ZM60.5808 63.7481C60.8451 63.8693 60.7498 64.1315 60.9909 64.2618C61.3354 63.752 61.6361 63.1345 61.9711 62.5847C61.9285 62.3141 61.8048 62.0753 61.5534 61.8866C61.2696 62.6287 60.8662 63.0429 60.5808 63.7481ZM23.6003 47.8953C14.5829 56.6897 11.1612 71.9026 9.72832 82.6383C12.38 88.7434 20.0561 94.5397 28.4599 98.252C29.6805 98.7914 30.9497 99.3679 32.2013 99.8015C36.6653 101.343 41.1366 102.106 45.2707 102.122C46.0582 101.875 46.7632 101.343 47.6131 100.703C49.4471 99.3411 51.4736 97.7907 52.9746 96.4528C59.9179 90.2515 67.6799 84.6599 72.6681 75.2469C71.7365 74.8564 70.6346 74.5266 69.8691 74.0648C69.6185 74.7563 69.0969 74.7798 68.6234 74.9217C68.4655 76.3389 67.2771 77.1546 66.3806 77.7122C67.0014 78.3807 65.803 79.7187 64.9329 79.198C64.6118 81.0414 63.1273 82.2043 61.7295 82.4213C62.2698 83.521 60.7529 84.8528 59.7459 84.061C59.0243 85.4307 57.9106 85.8673 56.7736 86.2132C56.9204 87.2049 55.6211 88.0953 54.8435 87.3385C54.0878 88.3593 53.1136 88.8412 51.9608 88.8998C51.9214 90.0456 50.5971 90.7086 49.5595 89.8413C48.4108 90.9538 46.5953 91.2347 44.8567 90.33C44.5084 91.5096 42.9149 91.36 42.5339 90.5039C41.3862 90.9726 39.4325 91.0454 38.25 89.904C37.5573 90.8314 35.9869 90.1918 35.8575 89.2433C34.7606 89.7046 32.6699 89.0255 31.9716 88.0002C31.0344 88.5238 29.606 87.8036 29.6362 86.8174C28.5015 86.8377 27.3529 85.9453 27.1303 85.2144C26.1481 85.6932 24.2778 84.9276 25.1242 83.534C23.5252 83.1555 22.6439 82.0771 22.5374 80.9197C21.3689 81.0719 20.3007 80.1292 20.9118 79.0339C19.5274 78.1403 18.9434 76.9328 19.1714 75.407C17.7183 75.0399 17.5975 73.6321 18.6032 72.863C17.601 71.9007 17.6741 70.523 18.4387 68.8617C17.4897 68.4281 17.1951 67.5694 17.7653 66.7212C17.9614 66.4258 18.5416 66.2982 18.5907 66.154C18.6116 66.0896 18.185 65.2701 18.1546 64.9135C18.0635 63.8438 18.4609 62.9011 19.1624 61.9952C18.039 61.4302 18.4822 59.3078 19.9095 59.4289C19.3898 58.0651 20.347 55.7349 21.8171 54.9836C20.9894 54.2527 21.691 52.2039 23.1312 52.6384C23.3521 50.7469 24.927 49.7734 26.1311 49.245C25.0168 48.9012 24.5058 48.3209 23.6003 47.8953ZM61.6005 65.1345C61.724 65.2734 61.8396 65.4092 61.9632 65.5481C62.2894 64.9768 62.5822 64.3561 62.9434 63.871C62.8299 63.6906 62.6932 63.5194 62.5333 63.3573C62.2755 64.0642 61.8786 64.4446 61.6005 65.1345ZM29.243 51.3474C29.618 51.2941 29.9362 51.1006 30.2718 50.9503C30.1121 50.888 29.9604 50.8288 29.8006 50.7665C29.6072 50.9361 29.4189 51.1348 29.243 51.3474ZM24.671 52.3407C24.5768 52.8211 25.2814 54.0937 25.5497 54.0259C25.9906 53.4721 25.3369 53.0539 25.2939 52.5836C25.2421 51.9919 25.5819 51.2716 26.0421 50.9974C26.698 50.6091 27.4692 51.0187 28.194 50.5846C26.8844 50.1738 24.95 50.9073 24.671 52.3407ZM55.6964 63.6398C56.4896 63.3413 57.3105 63.1443 57.9821 62.5624C57.1138 62.6593 56.4328 63.2012 55.6964 63.6398ZM62.5406 66.3085C62.8165 66.4251 62.7908 66.6601 63.0667 66.7767C63.2575 66.3522 63.6513 65.7981 63.9309 65.1451C63.6673 65.0423 63.775 64.794 63.4883 64.7003C63.1467 65.184 62.8699 65.8109 62.5406 66.3085ZM55.937 64.7133C56.7731 64.8851 57.7409 64.056 58.5703 63.6808C58.4657 63.6219 58.4923 63.5053 58.3994 63.4418C57.6457 63.9372 56.4446 64.1583 55.937 64.7133ZM63.6803 67.4605C63.851 67.5996 63.8942 67.7888 64.1229 67.9052C64.413 67.4105 64.7264 67.0066 64.9946 66.458C64.7775 66.337 64.8736 66.0932 64.552 66.0132C64.2294 66.5769 63.9848 66.9351 63.6803 67.4605ZM27.1598 51.6147C26.5545 51.5147 25.8595 52.3868 26.5089 52.7942C26.635 52.3263 27.4252 51.954 27.1598 51.6147ZM59.0237 64.4836C58.3628 64.9426 57.2502 65.1165 56.8616 65.6998C57.7801 65.6769 58.5062 65.1799 59.2629 64.7583C59.1111 64.6991 59.2646 64.514 59.0237 64.4836ZM64.8084 68.617C65.1409 68.7739 65.2415 69.0217 65.5704 69.1863C65.8548 68.7438 66.1304 68.2797 66.398 67.8126C66.156 67.564 65.9176 67.3077 65.6363 67.062C65.4111 67.6999 65.0511 68.0222 64.8084 68.617ZM59.1554 65.9683C59.3025 65.817 59.8233 65.7751 59.7243 65.5641C59.5984 65.7509 59.0338 65.685 59.1554 65.9683ZM66.292 69.8215C66.6484 69.8878 66.5907 70.1103 66.8506 70.2207C67.1118 69.7873 67.3853 69.3678 67.6064 68.8189C67.4704 68.6662 67.3693 68.4997 67.0477 68.4197C66.8398 69.0009 66.5007 69.2587 66.292 69.8215ZM67.6047 70.7869C67.7776 70.8815 67.846 71.0171 68.1196 71.0784C68.3823 70.6819 68.5571 70.2511 68.9191 69.7844C68.7715 69.6362 68.5928 69.4939 68.3604 69.3851C68.1299 69.894 67.8127 70.2057 67.6047 70.7869ZM68.8853 71.64C69.0553 71.7608 69.1941 71.8874 69.4801 71.9627C69.6888 71.3999 70.0279 71.1421 70.2358 70.5609C69.915 70.4993 69.9618 70.2999 69.6411 70.2383C69.4324 70.801 69.0853 71.0558 68.8853 71.64ZM70.1905 72.4211C70.3742 72.4927 70.5579 72.5643 70.7415 72.636C70.9909 72.1072 71.2665 71.6432 71.5728 71.2546C71.3079 71.2148 71.3214 71.0658 71.1377 70.9942C70.7025 71.4958 70.638 71.9334 70.1905 72.4211ZM72.3272 71.6395C72.0779 72.1682 71.8023 72.6323 71.4997 73.0132C71.6617 73.1308 71.8084 73.2606 72.0944 73.3358C72.3539 72.7657 72.887 72.2569 73.0023 71.812C72.6518 71.7933 72.6435 71.5904 72.3272 71.6395ZM72.9931 73.5955C73.5784 73.8782 73.8912 72.3128 73.7925 72.3015C73.5179 72.8839 73.3381 73.0043 72.9931 73.5955ZM22.8543 54.4083C22.9289 54.3104 23.0698 54.3925 23.1626 54.3561C23.974 52.8763 21.4122 53.7371 22.8543 54.4083ZM22.4665 59.9814C21.6206 59.1889 21.7584 57.0926 23.0565 56.365C23.5443 56.0926 24.2559 56.3882 24.5414 55.7828C22.0796 55.3491 20.391 59.2901 22.4665 59.9814ZM68.9025 73.9691C69.0341 73.7301 68.9801 73.5639 68.7681 73.4722C68.6133 73.7203 68.5817 73.9075 68.9025 73.9691ZM22.9577 58.7396C23.1669 58.0955 23.7101 57.5452 23.626 57.1223C23.1292 57.2734 22.6596 58.3693 22.9577 58.7396ZM65.2046 75.2942C65.6625 75.3457 66.4801 74.4942 65.9679 74.0768C65.7881 74.5782 65.1879 74.8885 65.2046 75.2942ZM64.3864 76.227C65.0586 76.4256 65.9435 76.2536 66.1466 75.8429C65.7027 76.323 64.9659 76.081 64.3864 76.227ZM19.968 61.3296C20.3103 61.2454 20.4208 60.9709 20.4056 60.6021C19.6873 59.7596 19.0077 61.1003 19.968 61.3296ZM65.0562 78.3752C65.2696 78.4039 65.4924 78.4727 65.5921 78.2212C65.5332 78.1257 65.4315 78.0407 65.2369 77.992C65.1755 78.1223 65.1177 78.2449 65.0562 78.3752ZM63.1908 79.1628C63.3255 78.6166 63.2478 78.1599 63.0149 77.7516C62.799 78.3296 63.2211 78.6575 63.1908 79.1628ZM21.3078 66.5875C20.58 65.705 19.6397 64.4312 20.5464 63.0701C20.7128 62.8175 21.1472 62.6784 21.2156 62.433C19.3447 63.3727 19.5919 66.1362 21.3078 66.5875ZM60.8257 80.0277C61.5203 80.1988 62.4954 79.3543 62.0887 78.7331C61.7015 79.2534 61.2006 79.4935 60.8257 80.0277ZM21.4326 64.9398C21.3694 64.4524 21.6657 63.8241 21.5213 63.3686C20.9707 63.8343 21.04 64.8502 21.4326 64.9398ZM61.0189 81.0012C60.6867 81.044 60.2372 80.8143 59.8883 80.8325C60.1413 81.158 60.7202 81.0934 61.0189 81.0012ZM58.528 82.5338C58.574 82.3158 58.5345 82.119 58.4218 81.9571C58.1673 82.0756 58.4384 82.3628 58.528 82.5338ZM60.5363 83.4076C60.6333 83.2821 60.825 83.3568 60.8731 83.0944C60.7693 83.0539 60.6655 83.0134 60.5617 82.9729C60.459 83.1506 60.3679 83.3237 60.5363 83.4076ZM18.4068 67.6064C18.6102 67.7764 18.6317 68.0116 19.0012 68.1103C19.9052 67.7371 18.7523 66.4529 18.4068 67.6064ZM21.87 72.7125C20.0141 72.2973 18.7441 70.4595 20.1658 69.0089C20.3881 68.7781 20.9641 68.7396 21.071 68.4729C18.5684 69.1481 18.9491 73.1521 21.87 72.7125ZM53.284 82.1855C53.7727 82.0313 54.2177 81.7694 54.689 81.5721C54.1875 81.5126 53.2933 82.1256 53.284 82.1855ZM56.3944 83.489C56.9515 83.8514 57.6642 83.1223 57.4442 82.6464C57.1511 83.0674 56.7181 83.1435 56.3944 83.489ZM21.5058 71.5C21.5039 70.7826 21.3511 70.1243 21.2679 69.4387C20.3043 69.7978 20.2742 71.2647 21.5058 71.5ZM55.3009 84.2238C55.607 84.5972 56.7405 84.7398 56.7872 84.4405C56.3256 84.7776 55.5881 83.7552 55.3009 84.2238ZM24.3857 73.6934C24.6998 73.6889 24.9237 73.495 25.1861 73.3796C24.8617 73.3257 24.6692 73.6135 24.3857 73.6934ZM24.4023 74.8611C24.7944 74.6511 25.5602 74.4508 25.6917 74.1119C25.3448 74.4665 24.5082 74.476 24.4023 74.8611ZM55.3224 86.5637C55.3793 86.7038 55.5629 86.7754 55.7137 86.7162C56.0076 86.3137 55.4307 86.2339 55.3224 86.5637ZM24.7397 75.7093C25.2212 75.5705 26.032 75.4149 26.1371 74.9116C25.7242 75.2858 25.2123 75.4491 24.7397 75.7093ZM51.5098 86.1475C52.051 86.9845 53.4332 86.199 52.763 85.475C52.3615 85.7448 51.8683 85.7883 51.5098 86.1475ZM18.8717 74.138C19.118 74.2975 19.1786 74.5298 19.5384 74.4886C19.6215 74.3124 19.7046 74.1362 19.7878 73.9599C19.5666 73.6469 18.9331 73.5269 18.8717 74.138ZM23.2812 76.8371C23.2546 76.1917 22.7873 75.7192 22.5904 75.1344C21.4054 75.4616 22.112 77.0707 23.2812 76.8371ZM52.5218 87.3495C51.8208 87.6931 50.8739 86.834 50.5572 86.5835C50.771 87.2928 52.0359 87.8586 52.5218 87.3495ZM20.9346 75.4776C20.4423 76.5012 21.5325 77.9787 22.5316 77.6244C21.1971 77.4669 21.0362 76.3246 20.9346 75.4776ZM47.0348 89.501C47.9871 89.7272 49.3722 88.1535 48.6195 87.5244C48.8774 88.5412 47.4805 89.2575 47.0348 89.501ZM47.525 87.279C46.9443 87.5879 46.194 87.4949 45.6046 87.7822C45.8151 89.0799 48.3373 88.4032 47.525 87.279ZM50.3972 89.288C50.6695 89.4123 50.8631 89.3427 50.9657 89.0651C50.8059 89.0029 50.6542 88.9437 50.4945 88.8814C50.3874 89.0483 50.3731 89.1788 50.3972 89.288ZM27.5524 81.8137C25.7163 82.7398 23.0244 81.0098 24.7185 78.9216C22.3663 80.9618 25.8571 83.2029 27.5524 81.8137ZM26.631 81.0009C26.1855 80.5822 25.9256 80.0908 25.3794 79.7054C24.6237 80.7262 25.8895 81.4103 26.631 81.0009ZM45.0701 88.735C44.694 88.5702 44.8851 87.8645 44.5289 87.8979C44.5403 88.1745 44.9783 88.8896 45.0701 88.735ZM21.7585 79.4639C21.6372 79.7613 21.7746 79.951 22.1289 80.0619C22.3311 79.9139 22.4615 79.8378 22.4581 79.5643C22.3678 79.3749 21.8647 79.1787 21.7585 79.4639ZM42.5219 87.823C42.0017 90.2691 38.938 89.1471 38.7602 87.8803C38.6505 89.8968 43.0343 89.9642 42.5219 87.823ZM39.7926 87.4755C39.5858 88.2748 41.2346 88.9086 41.5105 87.7824C41.1524 87.5793 40.2809 87.5026 39.7926 87.4755ZM29.634 83.5144C29.4738 84.0144 30.2474 84.4793 30.6201 83.9896C30.3275 83.8483 29.8607 83.2944 29.634 83.5144ZM28.6631 83.408C27.9549 84.6287 29.9197 85.8756 30.6255 84.9806C29.5286 85.4419 28.4884 84.3196 28.6631 83.408ZM33.989 85.7477C33.5887 86.7166 35.5459 87.3981 35.9977 86.4403C35.5912 86.2999 34.5608 85.7983 33.989 85.7477ZM32.9739 85.7148C32.0824 87.4446 35.0206 88.5722 35.8787 87.6549C34.5891 88.3042 32.5938 86.9818 32.9739 85.7148ZM43.4956 89.9082C43.2069 90.7209 44.5615 89.9337 43.4956 89.9082V89.9082ZM25.8705 84.197C26.1096 84.4717 26.3209 84.545 26.6174 84.3975C26.9058 83.766 26.1303 83.4455 25.8705 84.197ZM36.8376 89.19C36.8988 89.3408 37.3061 89.4997 37.4686 89.436C37.6479 89.1158 37.4213 88.9549 37.3266 88.7547C37.1636 88.8998 36.943 88.8863 36.8376 89.19ZM30.9643 86.6277C30.199 87.5086 32.0828 87.2634 30.9643 86.6277V86.6277Z" fill="#4B4B4B"/>
<path fill-rule="evenodd" clip-rule="evenodd" d="M26.8739 58.9645C28.8382 58.3709 30.9629 59.7548 30.9786 61.1926C31.0347 64.8621 24.5289 64.3342 25.5851 60.8882C25.8638 59.9754 26.4161 59.7528 26.8739 58.9645ZM27.0627 61.7282C27.6768 61.3747 28.3973 61.2997 28.9798 60.8517C28.4854 60.7503 27.3556 61.3498 27.0627 61.7282ZM27.9539 62.4401C28.3414 62.3448 29.0816 62.2684 29.0939 61.799C28.8024 62.1141 28.0418 62.1734 27.9539 62.4401Z" fill="#4B4B4B"/>
</svg>
