<svg width="29" height="17" viewBox="0 0 29 17" fill="none" xmlns="http://www.w3.org/2000/svg">
<path d="M27.7115 13.0132C27.0807 12.2572 26.3681 11.5823 25.6788 10.9295C25.4366 10.7 25.186 10.4627 24.9447 10.2272C24.9447 10.2271 24.9446 10.2271 24.9446 10.227C24.62 9.91044 24.4612 9.68575 24.4446 9.51979C24.4282 9.35666 24.5397 9.11464 24.7961 8.75689C25.1795 8.21881 25.5882 7.67981 25.9835 7.1586C26.3349 6.69528 26.6982 6.21616 27.0465 5.73431L27.1246 5.62613C27.804 4.68578 28.5065 3.71342 28.8829 2.5285C28.9904 2.18876 29.1021 1.68602 28.8328 1.24467C28.5634 0.803216 28.064 0.672376 27.712 0.61245C27.5401 0.582996 27.377 0.580561 27.2252 0.580561L22.8182 0.576652C22.0563 0.563965 21.5277 0.925107 21.2396 1.65034C21.0091 2.22955 20.7368 2.9008 20.4214 3.53755C19.8179 4.76683 19.051 6.18268 17.9395 7.36234L17.8901 7.4149C17.8145 7.49567 17.6908 7.62776 17.6273 7.65806C17.5069 7.58239 17.368 7.1496 17.3743 6.92286C17.3745 6.91726 17.3745 6.91171 17.3745 6.90615L17.3706 1.81397C17.3706 1.78809 17.3688 1.7622 17.3654 1.73654C17.2665 1.01007 17.0738 0.28178 15.924 0.054877C15.8871 0.0475704 15.8497 0.0439453 15.8122 0.0439453H11.2279C10.3655 0.0439453 9.90928 0.438902 9.54355 0.867107C9.43769 0.991943 9.15641 1.32341 9.29971 1.72861C9.44471 2.13864 9.87677 2.22048 10.0186 2.24733C10.5182 2.34215 10.7765 2.6245 10.8565 3.16429C11.0146 4.21311 11.0339 5.33511 10.9175 6.69352C10.8851 7.05824 10.8247 7.33544 10.7273 7.56596C10.7003 7.6298 10.6766 7.66933 10.6601 7.69261C10.6337 7.68196 10.5926 7.66157 10.5358 7.62266C10.1847 7.38245 9.92015 7.00901 9.66431 6.64799C8.64239 5.20517 7.78281 3.61164 7.03612 1.77563C6.72861 1.02327 6.15054 0.603047 5.40945 0.592172C3.99751 0.568666 2.69165 0.569232 1.41859 0.593985C0.818145 0.604406 0.397077 0.793417 0.166889 1.15586C-0.0635827 1.51899 -0.0551433 1.98197 0.192037 2.53218C1.959 6.46135 3.56341 9.31968 5.39404 11.8002C6.68302 13.5466 7.98055 14.7588 9.47739 15.6152C11.0501 16.5149 12.8237 16.9559 14.8814 16.9558C15.1154 16.9558 15.3534 16.9501 15.5947 16.9386C16.8641 16.8808 17.3807 16.3758 17.437 15.1394C17.4686 14.4859 17.5413 13.9566 17.7937 13.4967C17.8643 13.3679 17.9439 13.2816 18.0066 13.2658C18.0734 13.2491 18.1917 13.29 18.3233 13.3754C18.5638 13.5317 18.771 13.7435 18.9413 13.9295C19.1139 14.1185 19.2884 14.3137 19.4572 14.5025C19.8165 14.9045 20.188 15.3202 20.5772 15.7166C21.4576 16.6141 22.4725 17.0256 23.5949 16.9394L27.6281 16.9413C27.6282 16.9413 27.6282 16.9413 27.6283 16.9413C27.6411 16.9413 27.6539 16.9409 27.6667 16.94C28.1319 16.909 28.5341 16.6515 28.7703 16.2333C29.0547 15.7296 29.0504 15.0917 28.7585 14.5261C28.454 13.9381 28.059 13.432 27.7115 13.0132ZM27.7643 15.6652C27.7087 15.7637 27.6401 15.7817 27.6047 15.786L23.5724 15.7841C23.5723 15.7841 23.5722 15.7841 23.572 15.7841C23.5561 15.7841 23.5402 15.7847 23.5244 15.7861C22.73 15.8522 22.0548 15.573 21.4018 14.9075C21.0314 14.5301 20.669 14.1247 20.3186 13.7327C20.1478 13.5416 19.9713 13.344 19.7939 13.1498C19.5739 12.9096 19.302 12.6335 18.9525 12.4065C18.4294 12.067 17.9959 12.0772 17.7244 12.1457C17.4558 12.2133 17.0739 12.4065 16.7808 12.9414C16.4011 13.6335 16.3173 14.3801 16.2832 15.0855C16.2635 15.5169 16.1905 15.6308 16.16 15.6598C16.1201 15.6977 15.9867 15.7644 15.5414 15.7848C13.4018 15.8854 11.6061 15.5022 10.0512 14.6125C8.69847 13.8386 7.51399 12.7269 6.32369 11.1143C4.54375 8.70258 2.97763 5.90973 1.24584 2.05872C1.18308 1.91921 1.16371 1.83215 1.1581 1.78554C1.20228 1.77104 1.2886 1.75195 1.43995 1.74917C2.70009 1.72476 3.9923 1.72408 5.39149 1.74742C5.58305 1.75025 5.80118 1.80774 5.96634 2.21187C6.74651 4.13024 7.64772 5.79973 8.72163 7.31589C9.00676 7.71833 9.36168 8.21926 9.88328 8.57615C10.361 8.90331 10.7488 8.88768 10.9899 8.81699C11.2312 8.74625 11.5661 8.5497 11.7916 8.01569C11.9371 7.67149 12.0251 7.28389 12.0687 6.79418C12.1931 5.34117 12.171 4.13313 11.9993 2.99369C11.8782 2.17732 11.4567 1.58758 10.7927 1.28642C10.9106 1.22502 11.0435 1.19942 11.228 1.19942H15.7523C16.0069 1.25651 16.0573 1.32358 16.0746 1.34651C16.1479 1.44399 16.1898 1.67458 16.2154 1.85475L16.2192 6.89998C16.209 7.38364 16.4441 8.4563 17.2444 8.75044C17.251 8.75287 17.2576 8.75514 17.2643 8.75729C17.9929 8.99541 18.4748 8.48105 18.7336 8.2047L18.7797 8.15565C19.9972 6.86339 20.8171 5.35346 21.4577 4.04874C21.7915 3.37499 22.0743 2.67808 22.3133 2.07735C22.433 1.77608 22.5418 1.72646 22.8016 1.73196C22.8051 1.73207 22.8087 1.73207 22.8123 1.73207L27.2249 1.73598C27.3275 1.73598 27.4346 1.73717 27.5177 1.75138C27.728 1.78718 27.8146 1.83079 27.8431 1.84886C27.8461 1.88234 27.8454 1.97863 27.7818 2.17959C27.4618 3.18717 26.8432 4.04324 26.1884 4.94961L26.1101 5.05796C25.7699 5.52876 25.4106 6.00245 25.0632 6.46062C24.6628 6.98857 24.2489 7.53441 23.8564 8.0853C23.0173 9.25601 23.0911 10.0329 24.1382 11.0542C24.3856 11.2958 24.6393 11.5361 24.8847 11.7684C25.5803 12.4273 26.2373 13.0496 26.8238 13.7523C27.1307 14.1224 27.4787 14.5669 27.7324 15.0567C27.8647 15.3131 27.8322 15.5448 27.7643 15.6652Z" fill="black"/>
</svg>
