<svg width="170" height="76" viewBox="0 0 170 76" fill="none" xmlns="http://www.w3.org/2000/svg">
<g clip-path="url(#clip0_8_96)">
<path d="M0.634766 0.643616C12.6829 0.643616 12.6829 13.5162 24.7373 13.5162C36.7854 13.5162 36.7854 0.643616 48.8398 0.643616C60.8943 0.643616 60.8943 13.5162 72.9424 13.5162C84.9968 13.5162 84.9968 0.643616 97.0449 0.643616C109.099 0.643616 109.099 13.5162 121.147 13.5162C133.202 13.5162 133.202 0.643616 145.256 0.643616C157.311 0.643616 157.311 13.5162 169.365 13.5162" stroke="#262C38" stroke-width="2" stroke-miterlimit="10" stroke-linecap="round"/>
<path d="M0.634766 62.4838C12.6829 62.4838 12.6829 75.3564 24.7373 75.3564C36.7917 75.3564 36.7917 62.4838 48.8398 62.4838C60.8943 62.4838 60.8943 75.3564 72.9424 75.3564C84.9968 75.3564 84.9968 62.4838 97.0449 62.4838C109.099 62.4838 109.099 75.3564 121.147 75.3564C133.202 75.3564 133.202 62.4838 145.256 62.4838C157.311 62.4838 157.311 75.3564 169.365 75.3564" stroke="#262C38" stroke-width="2" stroke-miterlimit="10" stroke-linecap="round"/>
<path d="M0.634766 31.5637C12.6829 31.5637 12.6829 44.4363 24.7373 44.4363C36.7917 44.4363 36.7917 31.5637 48.8398 31.5637C60.8943 31.5637 60.8943 44.4363 72.9424 44.4363C84.9968 44.4363 84.9968 31.5637 97.0449 31.5637C109.099 31.5637 109.099 44.4363 121.147 44.4363C133.202 44.4363 133.202 31.5637 145.256 31.5637C157.311 31.5637 157.311 44.4363 169.365 44.4363" stroke="#262C38" stroke-width="2" stroke-miterlimit="10" stroke-linecap="round"/>
</g>
<defs>
<clipPath id="clip0_8_96">
<rect width="170" height="76" fill="white"/>
</clipPath>
</defs>
</svg>
