<svg width="50" height="50" viewBox="0 0 50 50" fill="none" xmlns="http://www.w3.org/2000/svg">
<path d="M25 11.7188C21.7685 11.7188 19.1406 14.3466 19.1406 17.5781C19.1406 20.8251 21.7638 23.4375 25 23.4375C28.2942 23.4375 30.8594 20.7759 30.8594 17.5781C30.8594 14.3466 28.2315 11.7188 25 11.7188Z" fill="#FF6565"/>
<path d="M25 0C15.3068 0 7.42188 7.88496 7.42188 17.5781C7.42188 20.8525 8.32881 24.0483 10.044 26.8207L23.9987 49.3069C24.5773 50.2414 25.9416 50.2271 26.5021 49.2869L40.1006 26.5832C41.7198 23.8695 42.5781 20.7553 42.5781 17.5781C42.5781 7.88496 34.6932 0 25 0ZM25 26.3867C20.0835 26.3867 16.1914 22.3849 16.1914 17.5781C16.1914 12.7315 20.1534 8.76953 25 8.76953C29.8466 8.76953 33.8086 12.7315 33.8086 17.5781C33.8086 22.3425 29.9688 26.3867 25 26.3867Z" fill="#4770FF"/>
</svg>
