<svg width="25" height="19" viewBox="0 0 25 19" fill="none" xmlns="http://www.w3.org/2000/svg">
<path d="M20.0286 0.316406H4.97143C2.2301 0.316406 0 2.55365 0 5.30314V13.6965C0 16.4465 2.2301 18.6832 4.97143 18.6832H20.0286C22.7699 18.6832 25 16.446 25 13.6965V5.30314C25 2.55365 22.7699 0.316406 20.0286 0.316406ZM23.9796 13.697C23.9796 15.8843 22.2071 17.6633 20.0286 17.6633H4.97143C2.79286 17.6633 1.02041 15.8838 1.02041 13.697V5.30314C1.02041 3.11641 2.79286 1.33681 4.97143 1.33681H20.0286C22.2071 1.33681 23.9796 3.11641 23.9796 5.30314V13.697Z" fill="black"/>
<path d="M17.0204 9.31555L9.95151 5.17525C9.79437 5.08341 9.59896 5.08188 9.44029 5.1727C9.28161 5.26351 9.18365 5.43239 9.18365 5.61555V13.8957C9.18365 14.0783 9.28161 14.2477 9.43978 14.3385C9.51835 14.3834 9.6061 14.4059 9.69386 14.4059C9.78314 14.4059 9.87192 14.3824 9.95151 14.336L17.0204 10.1967C17.1765 10.1054 17.2729 9.93749 17.2729 9.75637C17.2729 9.57525 17.177 9.40688 17.0204 9.31555ZM10.2041 13.0054V6.50535L15.753 9.75586L10.2041 13.0054Z" fill="black"/>
</svg>
